<svg width="364" height="77" viewBox="0 0 364 77" fill="none" xmlns="http://www.w3.org/2000/svg">
<g clip-path="url(#clip0_1_631)">
<path d="M35.223 39.3314C27.5453 36.8652 19.9805 34.287 12.4158 31.8208C11.9641 31.7087 11.6254 31.4846 11.2867 31.2604C10.7221 30.9241 10.7221 30.3636 11.2867 30.0273C11.7383 29.691 12.1899 29.5789 12.6416 29.3547C20.2063 27.1128 27.7711 24.8708 35.3359 22.6289C37.1424 22.0684 38.9489 22.0684 40.6425 22.6289C48.3202 24.9829 55.885 27.2249 63.5627 29.4668C64.0143 29.5789 64.4659 29.9152 64.8046 30.1394C65.2563 30.4757 65.2563 30.9241 64.8046 31.2604C64.4659 31.5967 64.1272 31.7088 63.6756 31.9329C56.5624 34.287 49.3364 36.641 42.2232 38.9951C40.8683 39.4435 39.6264 40.004 38.2715 39.8919C37.1424 39.8919 36.2391 39.7798 35.223 39.3314Z" fill="white"/>
<path d="M41.2067 44.2634C39.2873 44.9359 37.3679 44.9359 35.3356 44.2634C31.3838 42.9182 27.2063 41.6851 23.2545 40.3399C22.8029 40.2278 21.6738 40.0036 21.6738 41.573C21.6738 44.3754 21.6738 47.1779 21.7867 49.8682C21.6738 50.6529 21.8996 51.2134 22.4642 51.7739C23.2545 52.6707 24.3836 53.2311 25.5127 53.7916C28.1095 54.9126 30.9322 55.6973 33.7549 56.0336C38.1583 56.5941 42.4487 56.3699 46.7392 55.2489C48.8844 54.6884 51.0297 53.9037 52.8362 52.6707C53.062 52.4465 53.4007 52.2223 53.6265 51.9981C54.304 51.3255 54.6427 50.765 54.6427 49.7561C54.6427 46.9537 54.6427 44.1513 54.6427 41.2367C54.6427 40.6762 54.4169 40.0036 53.2878 40.2278L41.2067 44.2634Z" fill="white"/>
<path d="M13.9955 37.3137C13.7697 37.2016 13.3181 37.0895 13.3181 37.65C13.3181 40.4524 13.3181 43.1428 13.3181 45.9452C13.3181 46.1694 13.3181 46.6178 13.0923 46.842C12.4148 48.1871 11.7374 49.5323 11.3987 51.1017C11.1728 52.1106 11.2858 53.2315 11.9632 54.1283C12.189 54.4646 12.5277 54.6888 12.7535 54.913C13.3181 55.3614 13.9955 55.8098 14.7859 55.6977C15.2375 55.5856 15.802 55.4735 16.1408 55.1372C16.4795 54.913 16.9311 54.5767 17.1569 54.2404C18.0602 53.3436 18.286 51.9985 17.8344 50.7654C17.3827 49.4202 16.8182 48.075 16.2537 46.7299C16.1408 46.5057 16.0278 46.1694 16.0278 45.9452C16.0278 43.367 16.0278 40.9008 16.0278 38.3226C16.0278 37.8742 15.9149 37.7621 15.5762 37.65L13.9955 37.3137Z" fill="#FFC45C"/>
</g>
<circle cx="38" cy="38.5" r="36.5" stroke="white" stroke-width="3"/>
<path d="M106.32 59.995C104.07 59.995 102.09 59.59 100.38 58.78C98.7 57.94 97.395 56.77 96.465 55.27C95.535 53.77 95.055 52.045 95.025 50.095H100.065C100.125 51.715 100.68 53.02 101.73 54.01C102.81 55 104.325 55.495 106.275 55.495C108.045 55.495 109.425 55.105 110.415 54.325C111.435 53.545 111.945 52.48 111.945 51.13C111.945 50.08 111.645 49.225 111.045 48.565C110.475 47.905 109.755 47.38 108.885 46.99C108.015 46.57 106.8 46.105 105.24 45.595C103.2 44.905 101.565 44.26 100.335 43.66C99.105 43.03 98.04 42.1 97.14 40.87C96.27 39.64 95.835 38.02 95.835 36.01C95.835 34.39 96.27 32.935 97.14 31.645C98.04 30.355 99.27 29.35 100.83 28.63C102.42 27.88 104.205 27.505 106.185 27.505C108.045 27.505 109.74 27.895 111.27 28.675C112.83 29.425 114.075 30.505 115.005 31.915C115.965 33.295 116.46 34.9 116.49 36.73H111.495C111.435 35.35 110.91 34.225 109.92 33.355C108.96 32.455 107.67 32.005 106.05 32.005C104.55 32.005 103.32 32.365 102.36 33.085C101.4 33.805 100.92 34.81 100.92 36.1C100.92 37.09 101.205 37.915 101.775 38.575C102.345 39.235 103.065 39.76 103.935 40.15C104.835 40.54 106.035 40.975 107.535 41.455C109.575 42.145 111.21 42.805 112.44 43.435C113.7 44.065 114.78 45.01 115.68 46.27C116.58 47.53 117.03 49.18 117.03 51.22C117.03 52.87 116.58 54.37 115.68 55.72C114.78 57.04 113.52 58.09 111.9 58.87C110.28 59.62 108.42 59.995 106.32 59.995ZM147.725 36.505C149.375 36.505 150.845 36.91 152.135 37.72C153.425 38.53 154.415 39.67 155.105 41.14C155.825 42.58 156.185 44.215 156.185 46.045V59.5H151.505V46.54C151.505 44.86 151.07 43.495 150.2 42.445C149.33 41.395 148.175 40.87 146.735 40.87C145.325 40.87 144.11 41.41 143.09 42.49C142.07 43.57 141.56 44.92 141.56 46.54V59.5H136.88V46.54C136.88 44.86 136.445 43.495 135.575 42.445C134.735 41.395 133.58 40.87 132.11 40.87C130.7 40.87 129.485 41.41 128.465 42.49C127.475 43.54 126.98 44.89 126.98 46.54V59.5H122.3V37H126.755V39.745C127.535 38.665 128.48 37.855 129.59 37.315C130.7 36.775 131.885 36.505 133.145 36.505C134.645 36.505 136.025 36.91 137.285 37.72C138.575 38.5 139.565 39.535 140.255 40.825C141.095 39.445 142.145 38.38 143.405 37.63C144.695 36.88 146.135 36.505 147.725 36.505ZM179.928 37H184.473V59.5H179.928V56.62C177.978 58.87 175.398 59.995 172.188 59.995C170.208 59.995 168.333 59.485 166.563 58.465C164.823 57.445 163.428 56.05 162.378 54.28C161.328 52.48 160.803 50.47 160.803 48.25C160.803 46.03 161.328 44.035 162.378 42.265C163.428 40.465 164.823 39.055 166.563 38.035C168.333 37.015 170.208 36.505 172.188 36.505C175.398 36.505 177.978 37.63 179.928 39.88V37ZM172.773 55.63C174.123 55.63 175.353 55.315 176.463 54.685C177.573 54.025 178.443 53.14 179.073 52.03C179.703 50.89 180.018 49.63 180.018 48.25C180.018 46.87 179.703 45.625 179.073 44.515C178.443 43.375 177.573 42.49 176.463 41.86C175.353 41.2 174.123 40.87 172.773 40.87C171.423 40.87 170.193 41.2 169.083 41.86C167.973 42.49 167.103 43.375 166.473 44.515C165.843 45.625 165.528 46.87 165.528 48.25C165.528 49.63 165.843 50.89 166.473 52.03C167.103 53.14 167.973 54.025 169.083 54.685C170.193 55.315 171.423 55.63 172.773 55.63ZM204.307 36.73V41.095H201.742C200.032 41.095 198.577 41.68 197.377 42.85C196.207 43.99 195.622 45.46 195.622 47.26V59.5H190.942V37H195.487V39.88C197.347 37.78 199.672 36.73 202.462 36.73H204.307ZM219.783 41.32H214.248V51.58C214.248 52.69 214.563 53.56 215.193 54.19C215.823 54.82 216.693 55.135 217.803 55.135H219.783V59.5H216.948C214.698 59.5 212.898 58.84 211.548 57.52C210.228 56.2 209.568 54.445 209.568 52.255V41.32H205.878V37H209.568V31.06H214.248V37H219.783V41.32ZM234.375 36.505C236.415 36.505 238.305 37 240.045 37.99C241.815 38.95 243.21 40.285 244.23 41.995C245.28 43.705 245.805 45.64 245.805 47.8C245.805 48.58 245.745 49.285 245.625 49.915H227.67C227.94 51.805 228.66 53.29 229.83 54.37C231.03 55.45 232.545 55.99 234.375 55.99C237.105 55.99 239.085 54.91 240.315 52.75H245.13C244.23 54.97 242.85 56.74 240.99 58.06C239.16 59.35 236.955 59.995 234.375 59.995C232.275 59.995 230.34 59.5 228.57 58.51C226.8 57.49 225.39 56.095 224.34 54.325C223.32 52.525 222.81 50.5 222.81 48.25C222.81 46 223.32 43.99 224.34 42.22C225.39 40.42 226.8 39.025 228.57 38.035C230.34 37.015 232.275 36.505 234.375 36.505ZM234.375 40.51C232.605 40.51 231.135 41.005 229.965 41.995C228.825 42.985 228.09 44.35 227.76 46.09H240.945C240.705 44.44 240 43.105 238.83 42.085C237.66 41.035 236.175 40.51 234.375 40.51ZM267.991 27.1H272.671V59.5H268.126V56.62C266.176 58.87 263.596 59.995 260.386 59.995C258.406 59.995 256.531 59.485 254.761 58.465C253.021 57.445 251.626 56.05 250.576 54.28C249.526 52.48 249.001 50.47 249.001 48.25C249.001 46.03 249.526 44.035 250.576 42.265C251.626 40.465 253.021 39.055 254.761 38.035C256.531 37.015 258.406 36.505 260.386 36.505C263.536 36.505 266.071 37.585 267.991 39.745V27.1ZM260.971 55.63C262.321 55.63 263.551 55.315 264.661 54.685C265.771 54.025 266.641 53.14 267.271 52.03C267.901 50.89 268.216 49.63 268.216 48.25C268.216 46.87 267.901 45.625 267.271 44.515C266.641 43.375 265.771 42.49 264.661 41.86C263.551 41.2 262.321 40.87 260.971 40.87C259.621 40.87 258.391 41.2 257.281 41.86C256.171 42.49 255.301 43.375 254.671 44.515C254.041 45.625 253.726 46.87 253.726 48.25C253.726 49.63 254.041 50.89 254.671 52.03C255.301 53.14 256.171 54.025 257.281 54.685C258.391 55.315 259.621 55.63 260.971 55.63ZM289.26 59.995C287.22 59.995 285.435 59.56 283.905 58.69C282.375 57.82 281.19 56.62 280.35 55.09C279.54 53.53 279.135 51.745 279.135 49.735V37H283.815V49.735C283.815 51.505 284.31 52.93 285.3 54.01C286.29 55.09 287.61 55.63 289.26 55.63C290.91 55.63 292.23 55.09 293.22 54.01C294.24 52.93 294.75 51.505 294.75 49.735V37H299.43V49.735C299.43 51.745 299.01 53.53 298.17 55.09C297.36 56.62 296.175 57.82 294.615 58.69C293.085 59.56 291.3 59.995 289.26 59.995ZM310.454 59.5H305.639V54.28H310.454V59.5ZM334.439 37H338.984V59.5H334.439V56.62C332.489 58.87 329.909 59.995 326.699 59.995C324.719 59.995 322.844 59.485 321.074 58.465C319.334 57.445 317.939 56.05 316.889 54.28C315.839 52.48 315.314 50.47 315.314 48.25C315.314 46.03 315.839 44.035 316.889 42.265C317.939 40.465 319.334 39.055 321.074 38.035C322.844 37.015 324.719 36.505 326.699 36.505C329.909 36.505 332.489 37.63 334.439 39.88V37ZM327.284 55.63C328.634 55.63 329.864 55.315 330.974 54.685C332.084 54.025 332.954 53.14 333.584 52.03C334.214 50.89 334.529 49.63 334.529 48.25C334.529 46.87 334.214 45.625 333.584 44.515C332.954 43.375 332.084 42.49 330.974 41.86C329.864 41.2 328.634 40.87 327.284 40.87C325.934 40.87 324.704 41.2 323.594 41.86C322.484 42.49 321.614 43.375 320.984 44.515C320.354 45.625 320.039 46.87 320.039 48.25C320.039 49.63 320.354 50.89 320.984 52.03C321.614 53.14 322.484 54.025 323.594 54.685C324.704 55.315 325.934 55.63 327.284 55.63ZM361.699 39.79L350.404 55.18H362.149V59.5H343.879V56.71L355.219 41.32H344.329V37H361.699V39.79Z" fill="white"/>
<defs>
<clipPath id="clip0_1_631">
<rect width="54.2857" height="34.1224" fill="white" transform="translate(10.8574 22.2144)"/>
</clipPath>
</defs>
</svg>
