<svg width="49" height="49" viewBox="0 0 49 49" fill="none" xmlns="http://www.w3.org/2000/svg">
<g clip-path="url(#clip0_104_4639)">
<path d="M22.7095 25.0358C17.7594 23.4458 12.8821 21.7835 8.00484 20.1935C7.71366 20.1213 7.49527 19.9767 7.27689 19.8322C6.91291 19.6153 6.91291 19.254 7.27689 19.0372C7.56807 18.8203 7.85925 18.7481 8.15043 18.6035C13.0277 17.1581 17.905 15.7126 22.7823 14.2671C23.947 13.9058 25.1117 13.9058 26.2037 14.2671C31.1538 15.7849 36.0311 17.2303 40.9811 18.6758C41.2723 18.7481 41.5635 18.9649 41.7819 19.1094C42.0731 19.3263 42.0731 19.6153 41.7819 19.8322C41.5635 20.049 41.3451 20.1213 41.0539 20.2658C36.4678 21.7835 31.8089 23.3013 27.2228 24.819C26.3493 25.1081 25.5485 25.4695 24.675 25.3972C23.947 25.3972 23.3647 25.3249 22.7095 25.0358Z" fill="#059CED"/>
<path d="M26.5672 28.2158C25.3297 28.6495 24.0922 28.6495 22.7819 28.2158C20.234 27.3485 17.5406 26.5535 14.9928 25.6863C14.7016 25.614 13.9736 25.4694 13.9736 26.4813C13.9736 28.2881 13.9736 30.0949 14.0464 31.8295C13.9736 32.3354 14.1192 32.6968 14.4832 33.0581C14.9928 33.6363 15.7207 33.9977 16.4487 34.3591C18.123 35.0818 19.9429 35.5877 21.7627 35.8045C24.6018 36.1659 27.368 36.0213 30.1342 35.2986C31.5173 34.9372 32.9004 34.4313 34.0651 33.6363C34.2107 33.4918 34.4291 33.3472 34.5747 33.2027C35.0115 32.769 35.2299 32.4077 35.2299 31.7572C35.2299 29.9504 35.2299 28.1435 35.2299 26.2644C35.2299 25.9031 35.0843 25.4694 34.3563 25.614L26.5672 28.2158Z" fill="#059CED"/>
<path d="M9.02369 23.7348C8.87809 23.6625 8.58691 23.5902 8.58691 23.9516C8.58691 25.7584 8.58691 27.493 8.58691 29.2998C8.58691 29.4444 8.58691 29.7335 8.44132 29.878C8.00455 30.7453 7.56778 31.6126 7.34939 32.6244C7.2038 33.2749 7.2766 33.9976 7.71337 34.5758C7.85896 34.7926 8.07735 34.9372 8.22294 35.0817C8.58691 35.3708 9.02369 35.6599 9.53325 35.5876C9.82443 35.5153 10.1884 35.4431 10.4068 35.2263C10.6252 35.0817 10.9164 34.8649 11.062 34.6481C11.6443 34.0699 11.7899 33.2026 11.4987 32.4076C11.2075 31.5403 10.8436 30.673 10.4796 29.8058C10.4068 29.6612 10.334 29.4444 10.334 29.2998C10.334 27.6376 10.334 26.0475 10.334 24.3853C10.334 24.0962 10.2612 24.0239 10.0428 23.9516L9.02369 23.7348Z" fill="#FFC45C"/>
</g>
<circle cx="24.5" cy="24.5" r="23.5" stroke="#1D227D" stroke-width="2"/>
<defs>
<clipPath id="clip0_104_4639">
<rect width="35" height="22" fill="white" transform="translate(7 14)"/>
</clipPath>
</defs>
</svg>
