<svg width="62" height="62" viewBox="0 0 62 62" fill="none" xmlns="http://www.w3.org/2000/svg">
<path fill-rule="evenodd" clip-rule="evenodd" d="M31.0139 0C13.9306 0 0 13.9091 0 30.9915C0 48.074 13.9306 62 31.0139 62C48.0972 62 62 48.074 62 30.9915C62 13.9091 48.0972 0 31.0139 0ZM30.97 11.2311C31.7327 11.2222 32.4662 11.5226 33.0034 12.0641C33.5406 12.6056 33.8354 13.3414 33.8203 14.1037V29.8253L44.2593 40.2644C44.8069 40.787 45.121 41.5088 45.1304 42.2657C45.1403 43.0228 44.8451 43.752 44.3111 44.2888C43.7772 44.8255 43.0495 45.125 42.2924 45.1194C41.5354 45.1142 40.8123 44.8038 40.2864 44.2595L29.0164 32.9841C28.4843 32.4572 28.1829 31.7407 28.1801 30.9917V14.1037C28.1655 13.3518 28.4522 12.6255 28.9758 12.0858C29.4998 11.5462 30.2181 11.2387 30.97 11.2311Z" fill="#4BBBF6"/>
</svg>
